<?xml version="1.0" encoding="utf-8"?>
<!-- Generator: Adobe Illustrator 26.0.0, SVG Export Plug-In . SVG Version: 6.00 Build 0)  -->
<svg version="1.1" id="emoji" xmlns="http://www.w3.org/2000/svg" xmlns:xlink="http://www.w3.org/1999/xlink" x="0px" y="0px"
	 viewBox="0 0 72 72" style="enable-background:new 0 0 72 72;" xml:space="preserve">
<style type="text/css">
	.st0{fill:#1352A0;}
	.st1{fill:none;stroke:#000000;stroke-width:2;stroke-linejoin:round;}
	.st2{fill:none;stroke:#000000;stroke-width:2;stroke-linecap:round;stroke-linejoin:round;}
</style>
<g id="color">
	<path class="st0" d="M58,60.9c0,0,0-3-1-7c-1.2-4.8-4-8-10-8c-5,0-15,0-22,0c-6,0-8.8,3.2-10,8c-1,4-1,7-1,7"/>
	<path class="st0" d="M49,30.6c-1-3,3-3,2-5s-3-2.8-3-5c0-3-1-11-9-11c-12,0-15,7.3-15,12c0,4.1,2.6,7.2,4,10c2,4,5.2,7.4,7,8
		c4.2,1.4,13,2.3,13-1c0-2,1-3,1-4l-3-2L49,30.6z"/>
</g>
<g id="hair">
</g>
<g id="skin">
</g>
<g id="skin-shadow">
</g>
<g id="line">
	<path class="st1" d="M49.3,31.2c-0.1-0.8-0.7-2.1-0.6-3.1c0,0,3.9-0.7,2.4-2.7c-0.9-1.1-2.6-3.3-2.5-4.3C49,16.6,47,9.6,38,9.6
		c-11,0-14,7-14,12c0,5.8,3,8,4,11c1.4,4.3,5,7,11,8c3.9,0.7,10,1,9.4-3c-0.2-1.1,0.4-2.4,0.5-3.4L46,32.8L49.3,31.2z"/>
	<line class="st2" x1="54" y1="28.6" x2="56" y2="26.6"/>
	<line class="st2" x1="56" y1="31.5" x2="58" y2="31.5"/>
	<line class="st2" x1="54" y1="34" x2="56" y2="36"/>
	<path class="st2" d="M58,59.9c0,0,0-2-1-6c-1.2-4.8-6-8-12-8c-5,0-10,0-17,0c-6,0-11.8,3.2-13,8c-1,4-1,6-1,6"/>
</g>
</svg>
